<?xml version="1.0" encoding="utf-8"?>
<!-- Generator: Adobe Illustrator 27.5.0, SVG Export Plug-In . SVG Version: 6.00 Build 0)  -->
<svg version="1.1" id="Design" xmlns="http://www.w3.org/2000/svg" xmlns:xlink="http://www.w3.org/1999/xlink" x="0px" y="0px"
	 viewBox="0 0 2000 2000" style="enable-background:new 0 0 2000 2000;" xml:space="preserve">
<rect style="fill:#FFFFFF;" width="2000" height="2000"/>
<g>
	<path style="fill:#4E4534;" d="M1366.48,2000c-251.678,0-503.355,0-755.033,0c-3.268-3.821-2.328-8.201-1.716-12.565
		c8.753-62.411,17.739-124.872,22.474-187.673c3.608-47.855,8.869-95.468,13.819-143.153c4.107-39.562-0.639-78.833-5.105-118.049
		c-5.376-47.209-12.109-94.242-18.445-136.82c6.172,46.168,12.649,96.794,18.273,147.529c2.107,19.008,3.333,38.084,5.044,57.12
		c2.035,22.637-0.823,45.134-3.946,67.472c-6.167,44.111-9.765,88.414-12.985,132.824c-2.673,36.868-9.163,73.412-13.484,110.158
		c-2.71,23.045-5.338,46.096-8.841,69.036c-0.753,4.932-0.995,10.055-4.504,14.121c-70.294,0-140.588,0-210.882,0
		c-1.901-10.263-1.39-20.72-0.461-30.879c3.153-34.474,1.33-68.973,1.458-103.447c0.112-30.192,3.806-60.025,6.702-89.962
		c2.896-29.94,6.09-59.852,8.56-89.832c1.496-18.158,4.994-36.029,7.633-54.018c4.189-28.551,3.807-57.638,9.409-85.952
		c14.196-71.743,21.976-144.532,35.711-216.328c9.533-49.831,23.495-98.116,50.617-141.886c23.857-38.501,56.754-66.902,96.1-87.883
		c64.503-34.395,129.671-67.508,198.583-92.504c2.064-0.749,4.144-1.453,6.237-2.122c12.592-4.021,12.565-4.026,15.314,8.399
		c0.896,4.05,3.098,7.522,5.297,10.952c23.156,36.119,54.015,62.875,93.775,79.827c29.866,12.734,60.071,23.624,92.226,28.917
		c34.256,5.64,66.214-1.363,96.478-17.035c15.562-8.058,31.136-16.229,45.108-27.116c21.625-16.849,35.969-39.042,47.793-63.22
		c6.427-13.141,6.353-12.838,20.434-8.392c36.767,11.609,74.775,18.865,110.995,32.538c43.979,16.601,86.041,36.571,123.18,65.772
		c30.114,23.677,51.066,54.164,64.676,89.754c21.547,56.347,33.081,114.997,40.036,174.725c4.423,37.98,8.975,75.95,12.363,114.032
		c1.637,18.399,4.416,36.819,4.153,55.269c-0.53,37.16,5.3,73.733,8.57,110.545c3.189,35.893,7.416,71.68,10.72,107.566
		c2.989,32.454,5.316,64.965,6.712,97.472c1.801,41.953,3.581,83.963,2.409,125.998c-0.088,3.165-0.257,6.298-2.57,8.811
		c-77.825,0-155.651,0-233.476,0c-3.976-5-2.59-10.682-2.107-16.27c1.755-20.291,4.398-40.611,2.739-60.979
		c-2.75-33.772-4.632-67.588-3.314-101.423c1.269-32.592-0.174-65.133-0.471-97.679c-0.32-35.109,4.423-69.408,11.867-103.473
		c10.003-45.777,13.514-92.407,18.473-138.83c3.427-32.078,2.216-64.493,5.831-96.602c0.445-3.954,1.731-7.825,1.342-11.87
		c-3.347,24.364-6.814,48.695-7.084,73.383c-0.326,29.834-5.878,59.249-8.022,88.894c-3.343,46.225-15.705,90.791-22.36,136.355
		c-4.407,30.169-4.42,60.532-2.167,90.99c1.432,19.352,1.42,38.839-0.454,58.253c-1.6,16.58-1.659,33.274-0.304,49.802
		c2.358,28.772,3.861,57.534,3.19,86.391c-0.248,10.649-2.092,21.199-2.276,31.875
		C1370.707,1992.918,1369.474,1996.874,1366.48,2000z"/>
	<path style="fill:#010101;" d="M1609.371,2000c-0.071-26.98,0.712-54-0.516-80.928c-0.8-17.533-0.491-35.094-1.69-52.574
		c-1.435-20.91-1.93-41.895-3.818-62.74c-2.705-29.856-4.523-59.803-8.657-89.542c-2.149-15.458-2.697-31.133-4.301-46.675
		c-1.474-14.285-3.987-28.482-4.988-42.792c-1.702-24.331-5.294-48.537-4.503-73.052c0.424-13.125-1.516-26.18-3.025-39.219
		c-0.97-8.384-1.425-16.855-1.944-25.238c-1.7-27.484-5.615-54.72-8.443-82.061c-5.113-49.429-12.599-98.54-25.869-146.581
		c-6.595-23.873-13.933-47.541-24.677-69.877c-16.08-33.427-39.586-60.748-70.383-81.598
		c-39.995-27.077-83.403-46.872-129.339-61.655c-22.372-7.199-44.874-13.61-67.817-18.594c-11.633-2.528-22.567-7.342-34.25-11.079
		c-5.644,13.075-12.117,25.524-19.527,37.479c-15.103,24.365-36.168,42.204-61.308,55.354c-9.702,5.075-19.108,10.669-29.19,15.129
		c-22.765,10.07-46.354,15.088-71.204,13.939c-16.33-0.755-32.113-4.769-47.898-8.615c-25.718-6.267-49.747-17.09-73.543-28.28
		c-36.239-17.041-63.412-44.238-84.413-77.919c-3.446-5.526-6.551-11.351-2.421-19.052c-13.784,3.201-25.496,8.401-37.482,12.712
		c-29.834,10.73-58.338,24.465-86.695,38.553c-22.459,11.158-45.288,21.578-67.668,32.889
		c-26.034,13.159-51.209,27.865-73.837,46.428c-13.359,10.959-25.123,23.563-35.313,37.597
		c-19.315,26.605-33.588,55.658-43.811,86.907c-9.95,30.417-16.815,61.485-21.984,92.997c-3.488,21.265-7.265,42.484-10.602,63.772
		c-2.902,18.512-5.322,37.099-8.036,55.641c-3.394,23.189-7.949,46.174-12.232,69.207c-2.513,13.517-4.382,27.088-5.028,40.902
		c-0.685,14.64-2.943,29.204-4.452,43.807c-2.343,22.678-7.689,44.932-8.831,67.817c-0.761,15.255-3.533,30.4-4.858,45.642
		c-0.758,8.719-1.241,17.459-2.253,26.167c-1.874,16.132-3.64,32.279-5.18,48.446c-1.038,10.895-2.172,21.829-2.289,32.756
		c-0.359,33.567,0.076,67.143-0.464,100.705c-0.252,15.635-1.887,31.251-1.788,46.921c0.014,2.262-0.743,4.306-1.695,6.303
		c-2.511,0-5.021,0-7.531,0c2.067-45.755,1.538-91.551,2.287-137.327c0.497-30.413,4.454-60.632,7.705-90.871
		c3.116-28.983,6.033-57.99,8.64-87.022c1.319-14.694,3.871-29.191,5.755-43.791c3.007-23.307,6.298-46.577,8.431-69.997
		c2.417-26.544,7.566-52.692,11.959-78.955c4.91-29.351,8.736-58.884,13.708-88.223c7.375-43.521,13.392-87.327,26.255-129.757
		c10.322-34.05,24.214-66.384,43.822-96.231c17.132-26.077,38.599-47.653,64.503-64.947c22.714-15.164,46.483-28.493,71.037-40.369
		c29.599-14.315,59.34-28.344,89.172-42.166c31.602-14.642,64.466-25.984,98.006-35.18c9.994-2.74,16.481-8.117,21.145-16.843
		c5.71-10.682,8.97-22.012,9.65-34.065c1.295-22.957-0.997-45.657-4.336-68.363c-2.024-13.766-7.967-26.287-10.843-39.749
		c-4.064-19.028-5.856-38.388-9.138-57.523c-0.202-1.175-0.474-2.338-0.729-3.583c-19.978,0.371-33.277-9.144-39.543-27.295
		c-8.405-24.344-13.724-49.462-14.867-75.295c-0.395-8.932,1.234-17.451,7.578-24.394c1.897-0.608,2.744,0.542,3.4,2.018
		c-5.857,26.21-0.422,51.594,5.633,76.944c1.458,6.105,2.921,12.211,5.34,18.01c3.078,7.379,7.458,13.864,14.575,17.895
		c3.743,2.12,8.213,5.289,12.187,2.456c3.417-2.436,0.764-7.039,0.337-10.65c-1.251-10.574-2.482-21.156-3.03-31.785
		c-1.311-25.429-13.907-47.242-22.229-70.429c-1.441-4.015-4.433-5.87-8.352-6.687c-1.411-0.712-2.584-1.567-2.012-3.434
		c2.004-1.403,4.009-2.805,6.165-4.314c0.195-3.233-1.89-5.77-3.142-8.525c-7.131-15.681-14.302-31.347-20.378-47.475
		c-11.859-31.476-13.576-63.552-4.74-96.003c5.674-20.837,12.273-41.423,17.892-62.274c5.609-20.814,18.636-34.173,38.615-41.504
		c19.688-7.224,39.883-13.093,58.972-21.933c9.66-4.474,19.502-8.58,29.002-13.367c16.61-8.37,34.105-14.112,52.05-18.708
		c16.607-4.253,32.963-3.499,48.988,2.493c9.088,3.398,18.143,6.947,26.978,10.946c20.8,9.415,42.711,14.2,65.268,16.692
		c7.463,0.825,14.939,1.892,22.267,3.5c18.116,3.977,32.019,13.816,40.718,30.5c1.883,3.611,3.941,7.131,5.826,10.741
		c5.775,11.059,13.635,19.935,24.397,26.688c22.603,14.184,33.733,35.195,35.752,61.724c2.66,34.936-4.449,67.877-18.37,99.687
		c-6.418,14.667-13.359,29.029-22.934,42.399c17.793,10.114,22.846,26.674,22.852,45.16c0.01,27.905-6.757,53.988-23.673,76.762
		c-2.6,3.501-5.67,6.728-8.893,9.678c-10.415,9.532-15.236,10.841-29.143,8.431c-3.889,14.11-8.459,28.103-11.419,42.429
		c-1.687,8.163-0.707,16.87-1,25.33c-0.945,27.261-1.885,54.522-2.906,81.78c-0.473,12.636,0.963,24.931,4.62,37.114
		c6.656,22.175,20.722,37.252,42.758,43.728c26.704,7.848,53.27,16.081,80.377,22.747c60.884,14.974,118.603,38.144,171.111,73.112
		c40.271,26.818,68.091,63.239,84.558,108.644c14.571,40.176,24.845,81.423,32.022,123.497
		c6.961,40.812,10.661,82.027,15.355,123.121c3.63,31.782,6.544,63.65,8.229,95.567c1.224,23.174,2.419,46.343,4.562,69.437
		c3.243,34.958,7.172,69.852,10.549,104.798c2.835,29.335,5.774,58.673,7.824,88.068c3.93,56.345,5.436,112.792,5.457,169.272
		c0.002,5.888,0.771,11.891-1.212,17.667C1613.137,2000,1611.254,2000,1609.371,2000z"/>
	<path style="fill:#010001;" d="M1366.48,2000c3.235-26.137,4.499-52.373,3.666-78.691c-0.514-16.242-2.211-32.427-3.108-48.633
		c-1.018-18.405-0.854-36.865,0.579-55.371c1.52-19.631,1.701-39.444-0.452-59.129c-0.89-8.138-0.317-16.283-0.606-24.42
		c-1.321-37.145,3.753-73.589,11.893-109.712c4.944-21.941,9.193-43.942,11.082-66.469c2.006-23.932,6.477-47.656,8.491-71.588
		c1.203-14.295,2.45-28.655,2.465-43.097c0.025-23.785,3.142-47.343,7.202-70.765c0.586-3.378,1.112-6.732,4.095-9.013
		c2.651,1.043,1.752,3.195,1.623,4.762c-0.895,10.888-2.049,21.755-2.942,32.643c-0.919,11.214-2.256,22.442-2.303,33.668
		c-0.076,18.49-0.796,36.936-2.339,55.339c-0.912,10.883-2.621,21.699-4.012,32.541c-1.032,8.046-2.558,16.053-3.121,24.129
		c-1.806,25.932-6.429,51.4-11.639,76.813c-3.948,19.256-7.692,38.523-9.597,58.18c-3.216,33.194-1.8,66.415-0.781,99.552
		c0.396,12.879-1.097,25.539-0.774,38.326c0.404,15.98-0.677,32.02,0.198,47.962c0.942,17.152,1.76,34.326,2.986,51.475
		c1,13.98,0.62,28.079-0.528,42.205c-1.061,13.055-3.328,26.101-2.663,39.293C1372.756,2000,1369.618,2000,1366.48,2000z"/>
	<path style="fill:#010101;" d="M602.033,2000c0.526-11.892,3.294-23.49,4.638-35.279c1.414-12.41,3.19-24.779,4.718-37.177
		c2.178-17.672,4.225-35.359,6.424-53.029c1.543-12.395,3.358-24.756,4.853-37.157c1.869-15.503,3.633-31.022,5.23-46.555
		c0.512-4.978,0.431-10.024,0.481-15.041c0.236-23.827,3.934-47.296,6.806-70.879c2.34-19.219,5.271-38.376,6.702-57.731
		c0.809-10.945,1.957-21.868,1.29-32.801c-1.198-19.643-2.679-39.264-4.774-58.852c-1.362-12.739-2.735-25.474-4.314-38.188
		c-2.386-19.211-4.763-38.422-7.149-57.633c-1.348-10.851-2.73-21.697-4.051-32.551c-1.245-10.228-2.494-20.457-3.595-30.701
		c-0.258-2.398-0.81-4.977,1.248-7.688c3.107,1.746,3.321,5.068,3.729,7.775c3.439,22.852,6.742,45.726,9.922,68.616
		c3.738,26.906,8.015,53.764,10.718,80.778c1.897,18.951,4.495,37.903,4.463,57.04c-0.012,7.182,2.131,14.254,1.435,21.51
		c-1.819,18.97-1.842,38.075-4.833,56.971c-1.952,12.333-2.828,24.832-4.398,37.23c-3.381,26.717-4.237,53.605-6.061,80.435
		c-1.331,19.579-3.896,39.14-6.633,58.641c-3.255,23.195-5.187,46.573-8.205,69.804c-2.735,21.05-4.423,42.251-8.722,63.094
		c-0.625,3.029-0.361,6.241-0.508,9.369C608.31,2000,605.171,2000,602.033,2000z"/>
	<path style="fill:#14100F;" d="M799.664,642.392c0.855,0.789,1.71,1.577,2.565,2.366c-0.272,3.678-2.255,5.65-5.923,5.944
		c-0.83-0.883-1.66-1.765-2.49-2.647C794.858,645.229,796.786,643.32,799.664,642.392z"/>
	<path style="fill:#FDCDAF;" d="M1165.139,650.688c0.396,34.718-1.399,67.604-4.199,100.397
		c-2.744,32.131-13.253,62.396-24.772,92.268c-3.038,7.879-6.384,15.689-10.25,23.19c-20.261,39.312-51.912,63.103-95.651,71.596
		c-44.86,8.711-84.26-3.287-120.671-28.807c-3.849-2.698-7.538-5.627-11.265-8.495c-21.998-16.926-36.526-38.691-41.499-66.151
		c-10.734-59.274-20.18-118.679-17.355-179.303c1.498-32.15,7.463-63.422,17.09-94.04c1.681-5.346,4.176-10.462,6.575-15.552
		c5.456-11.579,14.371-19.457,26.091-24.549c13.693-5.949,28.228-8.226,42.78-10.428c26.662-4.034,53.358-7.415,80.407-8.134
		c17.533-0.466,34.7-4.898,51.984-7.888c13.652-2.362,27.437-3.161,41.196-0.884c22.014,3.644,37.11,15.862,44.599,37
		c6.938,19.582,10.964,39.791,13.106,60.461C1165.413,611.706,1165.151,632.074,1165.139,650.688z"/>
	<path style="fill:#1F120C;" d="M1168.916,682.218c1.806-3.474,1.776-7.218,1.767-11.005c-0.05-20.08,0.834-40.206-0.235-60.229
		c-1.58-29.577-4.367-59.07-15.654-87.027c-7.046-17.453-19.322-28.682-37.189-34.329c-15.029-4.75-30.264-4.427-45.461-2.068
		c-18.458,2.865-36.734,6.915-55.206,9.675c-7.679,1.148-15.669,0.588-23.497,0.279c-16.345-0.645-32.377,2.275-48.435,4.315
		c-13.554,1.723-27.237,3.401-40.442,7.171c-13.274,3.789-26.42,8.028-36.187,18.741c-8.392,9.205-13.87,20.117-17.682,31.741
		c-6.616,20.172-11.41,40.848-14.618,61.836c-1.316,8.612-2.068,17.36-2.346,26.069c-0.39,12.202-0.098,24.426-0.098,36.562
		c-3.315,0.621-3.303-1.625-3.911-3.303c-12.256-33.833-27.526-66.426-41.059-99.735c-5.321-13.097-7.647-26.846-9.881-40.768
		c-3.59-22.371,1.542-43.326,7.778-64.329c4.267-14.371,9.441-28.576,12.346-43.225c5.082-25.623,20.542-40.494,44.7-47.91
		c30.29-9.298,59.398-21.448,87.785-35.572c16.822-8.369,35.001-13.696,53.512-16.784c15.779-2.633,31.053,1.01,45.667,7.582
		c16.536,7.436,33.045,15.025,50.886,18.999c14.607,3.254,29.419,5.097,44.25,7.026c21.501,2.797,39.593,11.377,49.113,32.614
		c1.92,4.282,4.235,8.394,6.504,12.511c5.558,10.087,13.715,17.463,23.286,23.839c22.734,15.147,33.617,36.371,34.144,64.089
		c0.514,27.063-3.704,52.897-13.344,78c-7.994,20.815-18.296,40.43-30.336,59.209c-6.406,9.992-12.023,20.5-17.793,30.888
		c-2.584,4.651-4.589,9.605-4.802,15.07C1171.309,683.104,1170.122,683.136,1168.916,682.218z"/>
	<path style="fill:#FDCDAF;" d="M1144.609,857.636c-0.747,23.493-1.414,46.988-2.275,70.477c-0.477,13,1.373,25.568,5.572,37.883
		c7.266,21.308,21.561,35.593,42.571,43.326c3.82,1.406,7.628,2.912,11.554,3.942c4.675,1.226,5.04,3.605,3.198,7.62
		c-11.675,25.447-26.856,48.407-49.723,65.038c-20.827,15.148-43.436,27.488-67.706,36.333c-29.619,10.795-59.464,9.26-89.722,1.808
		c-30.619-7.541-59.859-18.667-87.871-32.663c-33.025-16.501-58.457-41.769-77.425-73.451c-4.223-7.053-4.255-7.371,2.886-11.427
		c23.17-13.156,33.317-34.076,35.329-59.563c1.583-20.06,0.514-40.081-2.944-59.949c-0.342-1.966-1.316-4.101,0.343-6.617
		c3.787,4.324,7.158,8.787,11.137,12.619c31.364,30.204,67.465,51.759,111.833,53.91c58.583,2.84,106.176-17.579,136.445-70.584
		c5.609-9.823,9.644-20.352,14.6-30.462C1148.043,848.88,1144.305,853.636,1144.609,857.636z"/>
	<path style="fill:#FDCDAF;" d="M1219.126,684.92c-0.913,17.069-4.153,35.158-12.579,51.987
		c-5.116,10.219-11.942,19.113-21.362,25.811c-3.081,2.191-6.297,4.16-10.069,4.891c-6.838,1.325-9.709-1.607-9.07-8.458
		c0.989-10.598,2.227-21.228,2.265-31.849c0.089-25.174,7.898-47.911,20.397-69.343c2.366-4.058,5.008-7.961,7.265-12.077
		c2.271-4.141,5.102-3.939,8.509-1.666c2.95,1.968,4.949,4.787,6.802,7.69C1217.409,661.505,1219.058,672.243,1219.126,684.92z"/>
	<path style="fill:#FDCDAF;" d="M796.306,650.702c1.974-1.981,3.949-3.963,5.923-5.944c4.228-2.078,6.955-2.014,8.939,3.458
		c6.618,18.252,13.682,36.348,20.89,54.378c2.669,6.675,1.752,13.623,2.517,20.409c1.44,12.767,2.608,25.563,4.42,38.294
		c1.302,9.144,0.341,9.922-8.74,7.585c-11.463-2.95-19.094-10.247-23.58-21.095c-5.308-12.836-7.648-26.455-10.512-39.915
		c-2.149-10.1-4.007-20.264-4.435-30.662C791.348,667.981,792.112,659.079,796.306,650.702z"/>
	<path style="fill:#C4A38E;" d="M1144.609,857.636c-1.705-3.739,1.457-8.387-2.198-11.761c-0.228-2.886,1.522-4.987,3.571-9.199
		C1146.497,845.016,1146.827,851.371,1144.609,857.636z"/>
	<path style="fill:#3E3C3D;" d="M1168.916,682.218c1.188-0.023,2.376-0.046,3.563-0.068
		C1171.331,684.245,1170.146,684.418,1168.916,682.218z"/>
	<path style="fill:#313131;" d="M832.929,688.816c0.092,0.25,0.308,0.531,0.254,0.744c-0.206,0.808-0.63,0.892-1.026,0.21
		c-0.106-0.182,0.005-0.573,0.144-0.784C832.39,688.85,832.711,688.867,832.929,688.816z"/>
	<polygon style="fill:#51514C;" points="828.498,1003.01 829.125,1002.824 829.059,1003.346 	"/>
</g>
</svg>
